<?xml version="1.0" encoding="iso-8859-1"?>
<!-- Generator: Adobe Illustrator 19.0.0, SVG Export Plug-In . SVG Version: 6.00 Build 0)  -->
<svg version="1.1" id="Capa_1" xmlns="http://www.w3.org/2000/svg" xmlns:xlink="http://www.w3.org/1999/xlink" x="0px" y="0px"
	 viewBox="0 0 480 480" style="enable-background:new 0 0 480 480;" xml:space="preserve">
<g>
	<g>
		<path d="M116.27,232.695c2.451-5.225,3.725-10.924,3.73-16.695c0-22.091-17.909-40-40-40s-40,17.909-40,40
			c0.006,5.771,1.279,11.471,3.73,16.695C18.519,236.911,0.035,258.712,0,284.274V360c-0.001,4.417,3.579,7.999,7.996,8
			c0.001,0,0.003,0,0.004,0h24v104c-0.001,4.417,3.579,7.999,7.996,8c0.001,0,0.003,0,0.004,0h80c4.417,0.001,7.999-3.579,8-7.996
			c0-0.001,0-0.003,0-0.004V368h24c4.417,0.001,7.999-3.579,8-7.996c0-0.001,0-0.003,0-0.004v-75.727
			C159.965,258.712,141.481,236.911,116.27,232.695z M144,352h-16v-80h-16v192H88V352H72v112H48V272H32v80H16v-67.727
			c0.023-20.024,16.25-36.25,36.273-36.273h6.762c4.419-0.001,8-3.584,7.999-8.003c0-2.307-0.997-4.502-2.734-6.021
			C59.036,229.488,56.003,222.918,56,216c0-13.255,10.745-24,24-24s24,10.745,24,24c-0.003,6.918-3.036,13.488-8.301,17.977
			c-3.326,2.909-3.664,7.964-0.755,11.29c1.519,1.737,3.714,2.733,6.021,2.734h6.762c20.024,0.023,36.25,16.25,36.273,36.273V352z"
			/>
	</g>
</g>
<g>
	<g>
		<path d="M400,32c-13.249-0.014-23.986-10.751-24-24c0-4.418-3.582-8-8-8s-8,3.582-8,8c-0.014,13.249-10.751,23.986-24,24
			c-4.418,0-8,3.582-8,8s3.582,8,8,8c13.249,0.014,23.986,10.751,24,24c0,4.418,3.582,8,8,8s8-3.582,8-8
			c0.014-13.249,10.751-23.986,24-24c4.418,0,8-3.582,8-8S404.418,32,400,32z M368,48.024c-2.283-3.039-4.984-5.74-8.023-8.023
			c3.039-2.283,5.74-4.984,8.023-8.023c2.283,3.039,4.984,5.74,8.023,8.023C372.984,42.283,370.283,44.985,368,48.024z"/>
	</g>
</g>
<g>
	<g>
		<path d="M472.004,424c-0.001,0-0.003,0-0.004,0h-32v-24c0.001-4.417-3.579-7.999-7.996-8c-0.001,0-0.003,0-0.004,0h-16V202.125
			l62.945-110.156c2.086-3.65,0.991-8.293-2.508-10.625l-24-16c-1.84-1.211-4.093-1.622-6.242-1.141
			c-2.148,0.498-3.995,1.86-5.105,3.766l-35.844,61.445c-8.055-20.57-31.261-30.716-51.831-22.661
			c-10.382,4.065-18.595,12.279-22.661,22.661L294.91,67.969c-2.221-3.815-7.115-5.107-10.93-2.886
			c-0.142,0.083-0.281,0.17-0.418,0.261l-24,16c-3.498,2.332-4.594,6.975-2.508,10.625L320,202.125V392h-16
			c-4.417-0.001-7.999,3.579-8,7.996c0,0.001,0,0.003,0,0.004v24h-32c-4.417-0.001-7.999,3.579-8,7.996c0,0.001,0,0.003,0,0.004v48
			h16v-40h32c4.417,0.001,7.999-3.579,8-7.996c0-0.001,0-0.003,0-0.004v-24h112v24c-0.001,4.417,3.579,7.999,7.996,8
			c0.001,0,0.003,0,0.004,0h32v40h16v-48C480.001,427.583,476.421,424.001,472.004,424z M400,200v192h-24v-96h-16v96h-24V200
			c0-1.392-0.364-2.76-1.055-3.969L274.652,90.516l10.719-7.148l51.719,88.664c1.433,2.458,4.065,3.97,6.91,3.969h3.035
			c4.419-0.001,8-3.584,7.999-8.003c0-2.307-0.997-4.502-2.734-6.021c-5.265-4.489-8.298-11.058-8.301-17.977
			c0-13.255,10.745-24,24-24s24,10.745,24,24c-0.003,6.918-3.036,13.488-8.301,17.977c-3.326,2.909-3.664,7.964-0.755,11.29
			c1.519,1.737,3.714,2.733,6.021,2.734H392c2.846,0.001,5.477-1.51,6.91-3.969l51.719-88.664l10.719,7.148l-60.293,105.516
			C400.364,197.24,400,198.608,400,200z"/>
	</g>
</g>
<g>
	<g>
		<rect x="224" y="184" width="16" height="16"/>
	</g>
</g>
<g>
	<g>
		<rect x="256" y="200" width="16" height="16"/>
	</g>
</g>
<g>
	<g>
		<rect x="288" y="216" width="16" height="16"/>
	</g>
</g>
<g>
	<g>
		<rect x="224" y="240" width="16" height="16"/>
	</g>
</g>
<g>
	<g>
		<rect x="256" y="256" width="16" height="16"/>
	</g>
</g>
<g>
	<g>
		<rect x="288" y="272" width="16" height="16"/>
	</g>
</g>
<g>
	<g>
		<rect x="432" y="264" width="16" height="16"/>
	</g>
</g>
<g>
	<g>
		<rect x="464" y="280" width="16" height="16"/>
	</g>
</g>
<g>
	<g>
		<rect x="432" y="320" width="16" height="16"/>
	</g>
</g>
<g>
	<g>
		<rect x="464" y="336" width="16" height="16"/>
	</g>
</g>
<g>
	<g>
		<path d="M229.109,73.844l-48.219-40c-3.4-2.822-8.443-2.354-11.265,1.046c-1.208,1.455-1.861,3.29-1.844,5.181L167.926,56H64
			c-4.417-0.001-7.999,3.579-8,7.996c0,0.001,0,0.003,0,0.004v80c-0.001,4.417,3.579,7.999,7.996,8c0.001,0,0.003,0,0.004,0h32
			c4.417,0.001,7.999-3.579,8-7.996c0-0.001,0-0.003,0-0.004v-40h64v16c0.002,4.42,3.587,8.001,8.007,7.999
			c1.869-0.001,3.678-0.656,5.114-1.851l48-40c1.827-1.522,2.882-3.778,2.879-6.156C231.997,77.615,230.938,75.363,229.109,73.844z
			 M184,102.922V96c0.001-4.417-3.579-7.999-7.996-8c-0.001,0-0.003,0-0.004,0H96c-4.417-0.001-7.999,3.579-8,7.996
			c0,0.001,0,0.003,0,0.004v40H72V72h104c4.416,0.003,7.998-3.575,8-7.991c0-0.026,0-0.053,0-0.079l-0.063-6.766l27.551,22.852
			L184,102.922z"/>
	</g>
</g>
<g>
</g>
<g>
</g>
<g>
</g>
<g>
</g>
<g>
</g>
<g>
</g>
<g>
</g>
<g>
</g>
<g>
</g>
<g>
</g>
<g>
</g>
<g>
</g>
<g>
</g>
<g>
</g>
<g>
</g>
</svg>
