<svg height="484pt" viewBox="-18 0 484 484.8" width="484pt" xmlns="http://www.w3.org/2000/svg"><path d="m257.199219 240.800781-41.597657 41.597657c-4.800781 4.800781-7.203124 10.402343-7.203124 16.800781v100.800781l75.203124-75.199219h89.597657l75.199219 75.199219v-100.800781c0-6.398438-2.398438-12.800781-7.199219-16.800781l-41.597657-41.597657 3.199219-16.800781c14.398438-68.800781-4-140.800781-50.402343-195.199219l-24-28.800781-24 28.800781c-45.597657 53.597657-64.796876 125.597657-50.398438 195.199219zm-32.800781 58.398438c0-2.398438.800781-4 2.402343-5.597657l34.398438-34.402343 11.199219 54.402343-48 48zm205.601562-5.597657c1.601562 1.597657 2.398438 3.199219 2.398438 5.597657v62.402343l-47.199219-47.203124 11.199219-54.398438zm-113.601562-254.402343 12-14.398438 12 14.398438c12 14.402343 21.601562 29.601562 29.601562 45.601562h-83.199219c8-16 17.597657-31.199219 29.597657-45.601562zm-36.796876 61.601562h96.796876c15.203124 38.398438 18.402343 80 10.402343 120.800781l-8 39.199219h-26.402343v16h24l-6.398438 32h-33.601562v-48h-16v48h-33.597657l-6.402343-32h24v-16h-27.199219l-8-39.199219c-8-40.800781-4-82.402343 10.402343-120.800781zm0 0"/><path d="m328.398438 228.800781c26.402343 0 48-21.601562 48-48 0-26.402343-21.597657-48-48-48-26.398438 0-48 21.597657-48 48 0 26.398438 21.601562 48 48 48zm0-80c17.601562 0 32 14.398438 32 32 0 17.597657-14.398438 32-32 32-17.597657 0-32-14.402343-32-32 0-17.601562 14.402343-32 32-32zm0 0"/><path d="m448.398438 484.800781v-24c0-24-17.597657-44-40.796876-47.199219-3.203124-18.402343-16.800781-33.601562-35.203124-38.402343-.796876-14.398438-5.597657-28-14.398438-39.199219l-12.800781 9.601562c16 19.199219 14.402343 48-4 65.597657l-12.800781 14.402343-14.398438-14.402343c-17.601562-17.597657-19.199219-45.597657-4-65.597657l-12.800781-9.601562c-8.800781 11.199219-13.597657 24.800781-14.398438 39.199219-18.402343 4.800781-32 20-35.199219 38.402343-21.601562 3.199219-39.203124 23.199219-39.203124 47.199219v24h16v-24c0-17.601562 14.402343-32 32-32h8v-8c0-13.601562 8.800781-25.601562 20.800781-29.601562 2.402343 12 8.800781 23.199219 17.601562 32l25.597657 25.601562 25.601562-25.601562c8.800781-8.800781 15.199219-20 17.601562-32 12.796876 4.800781 20.796876 16.800781 20.796876 29.601562v8h8c17.601562 0 32 14.398438 32 32v24zm0 0"/><path d="m256.398438 476.800781v8h16v-8c0-13.601562 10.402343-24 24-24v-16c-22.398438 0-40 17.597657-40 40zm0 0"/><path d="m400.398438 484.800781v-8c0-22.402343-17.597657-40-40-40v16c13.601562 0 24 10.398438 24 24v8zm0 0"/><path d="m133.199219 380.800781 59.199219 59.199219v-68.800781c0-6.398438-2.398438-12.800781-7.199219-16.800781l-31.199219-31.199219 3.199219-14.398438c12-61.601562-4.800781-124.800781-46.398438-172l-14.402343-16-14.398438 16.800781c-41.601562 46.398438-58.398438 110.398438-46.398438 172l3.199219 14.398438-31.199219 31.199219c-4.800781 4-7.203124 9.601562-7.203124 16v68.800781l59.203124-59.199219zm40.800781-15.199219c1.601562 1.597657 2.398438 3.199219 2.398438 5.597657v30.402343l-31.199219-31.203124 5.601562-28zm-80-217.601562 2.398438-3.199219 2.402343 3.199219c11.199219 12 20 26.398438 27.199219 40.800781h-60c8-14.402343 16.800781-28.800781 28-40.800781zm-34.398438 56.800781h73.597657c12 32 15.199219 67.199219 8.800781 101.597657l-2.398438 10.402343h-19.203124v16h16l-6.398438 32h-25.601562v-48h-16v48h-25.597657l-6.402343-32h16v-16h-19.199219l-2.398438-10.402343c-6.402343-34.398438-3.199219-69.597657 8.800781-101.597657zm-43.203124 166.398438c0-2.398438.800781-4 2.402343-5.597657l23.199219-23.203124 5.601562 28-31.203124 31.203124zm0 0"/><path d="m16.398438 484.800781h16c0-23.199219 16.800781-43.199219 40-47.199219 1.601562 3.199219 4 6.398438 7.203124 9.597657l17.597657 17.601562 17.601562-17.601562c2.398438-2.398438 4.800781-5.597657 7.199219-9.597657 23.199219 4 40 24 40 47.199219h16c0-30.402343-20.800781-56-50.398438-62.402343 1.597657-10.398438-.800781-20.796876-6.402343-29.597657l-13.597657 8.800781c7.199219 10.398438 5.597657 24.796876-3.203124 34.398438l-8 5.601562-5.597657-5.601562c-8.800781-8.800781-10.402343-23.199219-3.199219-34.398438l-13.601562-8.800781c-5.601562 8.800781-8 19.199219-6.398438 29.597657-30.402343 6.402343-51.203124 32-51.203124 62.402343zm0 0"/><path d="m96.398438 292.800781c17.601562 0 32-14.402343 32-32 0-17.601562-14.398438-32-32-32-17.597657 0-32 14.398438-32 32 0 17.597657 14.402343 32 32 32zm0-48c8.800781 0 16 7.199219 16 16s-7.199219 16-16 16c-8.796876 0-16-7.199219-16-16s7.203124-16 16-16zm0 0"/><path d="m200.398438 36.800781h16v40h-16zm0 0"/><path d="m152.398438 100.800781h16v24h-16zm0 0"/><path d="m72.398438 52.800781h16v40h-16zm0 0"/><path d="m136.398438 4.800781h16v32h-16zm0 0"/><path d="m184.398438 180.800781h16v24h-16zm0 0"/><path d="m.398438 100.800781h16v24h-16zm0 0"/><path d="m424.398438 12.800781h16v40h-16zm0 0"/><path d="m256.398438 12.800781h16v24h-16zm0 0"/></svg>