<svg height="483pt" viewBox="-1 0 483 483.2" width="483pt" xmlns="http://www.w3.org/2000/svg"><path d="m408.101562 212v-3.199219l18.398438-9.601562c8-4 13.601562-12 13.601562-21.597657v-58.402343c0-10.398438-6.402343-19.199219-16-22.398438l-32-10.402343v-7.199219l8.796876-8.800781c4.800781-5.597657 7.203124-11.199219 7.203124-17.597657v-25.601562c0-13.597657-10.402343-24-24-24h-32c-13.601562 0-24 10.402343-24 24v25.601562c0 6.398438 2.398438 12.800781 7.199219 16.800781l8.800781 8.796876v7.203124l-32 10.398438c-9.601562 3.199219-16 12.800781-16 22.398438v58.402343c0 8.800781 4.796876 17.597657 13.597657 21.597657l18.402343 9.601562v99.199219h-72v176h224v-176h-72zm-8 207.199219h64v16h-64zm0-16v-16h64v16zm0-32v-16h64v16zm-16 96h-32v-144h32zm-48-96h-64v-16h64zm0 16v16h-64v-16zm0 32v16h-64v-16zm8-207.199219v-88h-16v67.199219l-11.203124-5.597657c-2.398438-1.601562-4.796876-4-4.796876-7.203124v-58.398438c0-3.199219 2.398438-6.398438 5.597657-7.199219l42.402343-14.402343v-24.796876l-13.601562-13.601562c-1.601562-3.199219-2.398438-5.601562-2.398438-7.199219v-25.601562c0-4.800781 3.199219-8 8-8h32c4.796876 0 8 3.199219 8 8v25.601562c0 2.398438-.800781 4-2.402343 5.597657l-13.597657 13.601562v24.800781l42.398438 14.398438c3.199219.800781 5.601562 4 5.601562 7.199219v58.402343c0 3.199219-1.601562 5.597657-4.800781 7.199219l-11.199219 6.398438v-67.199219h-16v184h-16v-96h-16v96h-16zm-8 111.199219v16h-64v-16zm-64 128h64v16h-64zm128 16v-16h64v16zm64-128h-64v-16h64zm0 0"/><path d="m224.101562 371.199219h-72v-98.398438l18.398438-9.601562c8-4 13.601562-12 13.601562-21.597657v-58.402343c0-10.398438-6.402343-19.199219-16-22.398438l-32-10.402343v-7.199219l4-4c7.199219-7.199219 12-17.597657 12-28v-4c0-22.398438-17.601562-40-40-40-22.402343 0-40 17.601562-40 40v3.199219c0 10.402343 4 20.800781 12 28l4 4v7.203124l-32 10.398438c-9.601562 3.199219-16 12.800781-16 22.398438v58.402343c0 8.800781 4.796876 17.597657 13.597657 21.597657l18.402343 9.601562v99.199219h-72v112h224zm-16 32h-64v-16h64zm-128 32h-64v-16h64zm16-48h32v80h-32zm48 32h64v16h-64zm-56-143.199219v-88h-16v67.199219l-11.203124-5.597657c-3.199219-2.402343-4.796876-4.800781-4.796876-8v-58.402343c0-3.199219 2.398438-6.398438 5.597657-7.199219l42.402343-14.398438v-24.800781l-8.800781-8.800781c-4.800781-4.800781-7.199219-10.398438-7.199219-16.800781v-4c0-13.597657 11.199219-24 24-24 13.597657 0 24 10.402343 24 24v3.199219c0 6.402343-2.402343 12.800781-7.203124 16.800781l-8.796876 8.800781v24.800781l42.398438 14.398438c3.199219.800781 5.601562 4 5.601562 7.199219v58.402343c0 3.199219-1.601562 5.597657-4.800781 7.199219l-11.199219 6.398438v-67.199219h-16v184h-16v-96h-16v96h-16zm-8 111.199219v16h-64v-16zm-64 64h64v16h-64zm128 16v-16h64v16zm0 0"/><path d="m232.101562 30.398438v260.800781h16v-260.800781l42.398438 42.402343 11.199219-11.199219-61.597657-61.601562-61.601562 61.601562 11.199219 11.199219zm0 0"/></svg>